<svg width="362" height="125" viewBox="0 0 362 125" fill="none" xmlns="http://www.w3.org/2000/svg">
<path d="M88.4615 0.82769H91.8015V-2.51231H88.4615V0.82769ZM88.4615 31.6954V35.0354H91.8015V31.6954H88.4615ZM39.7046 31.6954V28.3554H36.3646V31.6954H39.7046ZM39.7046 48.8831H36.3646V52.2231H39.7046V48.8831ZM74.7815 48.8831H78.1215V45.5431H74.7815V48.8831ZM74.7815 78.1723V81.5123H78.1215V78.1723H74.7815ZM39.7046 78.1723V74.8323H36.3646V78.1723H39.7046ZM39.7046 125V128.34H43.0446V125H39.7046ZM0.769231 125H-2.57077V128.34H0.769231V125ZM0.769231 0.82769V-2.51231H-2.57077V0.82769H0.769231ZM85.1215 0.82769V31.6954H91.8015V0.82769H85.1215ZM88.4615 28.3554H39.7046V35.0354H88.4615V28.3554ZM36.3646 31.6954V48.8831H43.0446V31.6954H36.3646ZM39.7046 52.2231H74.7815V45.5431H39.7046V52.2231ZM71.4415 48.8831V78.1723H78.1215V48.8831H71.4415ZM74.7815 74.8323H39.7046V81.5123H74.7815V74.8323ZM36.3646 78.1723V125H43.0446V78.1723H36.3646ZM39.7046 121.66H0.769231V128.34H39.7046V121.66ZM4.10923 125V0.82769H-2.57077V125H4.10923ZM0.769231 4.16769H88.4615V-2.51231H0.769231V4.16769ZM140.585 0.82769H143.925V-2.51231H140.585V0.82769ZM140.585 125V128.34H143.925V125H140.585ZM101.65 125H98.3096V128.34H101.65V125ZM101.65 0.82769V-2.51231H98.3096V0.82769H101.65ZM137.245 0.82769V125H143.925V0.82769H137.245ZM140.585 121.66H101.65V128.34H140.585V121.66ZM104.99 125V0.82769H98.3096V125H104.99ZM101.65 4.16769H140.585V-2.51231H101.65V4.16769ZM201.315 93.9569L198.681 91.9024L194.472 97.2969H201.315V93.9569ZM251.124 93.9569H254.464V90.6169H251.124V93.9569ZM251.124 125V128.34H254.464V125H251.124ZM158.17 125H154.83V128.34H158.17V125ZM158.17 95.7108L155.52 93.6778L154.83 94.5772V95.7108H158.17ZM207.278 31.6954L209.928 33.7283L214.05 28.3554H207.278V31.6954ZM158.17 31.6954H154.83V35.0354H158.17V31.6954ZM158.17 0.82769V-2.51231H154.83V0.82769H158.17ZM251.124 0.82769H254.464V-2.51231H251.124V0.82769ZM251.124 30.1169L253.757 32.1715L254.464 31.2657V30.1169H251.124ZM201.315 97.2969H251.124V90.6169H201.315V97.2969ZM247.784 93.9569V125H254.464V93.9569H247.784ZM251.124 121.66H158.17V128.34H251.124V121.66ZM161.51 125V95.7108H154.83V125H161.51ZM160.82 97.7437L209.928 33.7283L204.628 29.6625L155.52 93.6778L160.82 97.7437ZM207.278 28.3554H158.17V35.0354H207.278V28.3554ZM161.51 31.6954V0.82769H154.83V31.6954H161.51ZM158.17 4.16769H251.124V-2.51231H158.17V4.16769ZM247.784 0.82769V30.1169H254.464V0.82769H247.784ZM248.491 28.0624L198.681 91.9024L203.948 96.0115L253.757 32.1715L248.491 28.0624ZM311.786 93.9569L309.153 91.9024L304.944 97.2969H311.786V93.9569ZM361.596 93.9569H364.936V90.6169H361.596V93.9569ZM361.596 125V128.34H364.936V125H361.596ZM268.642 125H265.302V128.34H268.642V125ZM268.642 95.7108L265.992 93.6778L265.302 94.5772V95.7108H268.642ZM317.75 31.6954L320.4 33.7283L324.521 28.3554H317.75V31.6954ZM268.642 31.6954H265.302V35.0354H268.642V31.6954ZM268.642 0.82769V-2.51231H265.302V0.82769H268.642ZM361.596 0.82769H364.936V-2.51231H361.596V0.82769ZM361.596 30.1169L364.229 32.1715L364.936 31.2657V30.1169H361.596ZM311.786 97.2969H361.596V90.6169H311.786V97.2969ZM358.256 93.9569V125H364.936V93.9569H358.256ZM361.596 121.66H268.642V128.34H361.596V121.66ZM271.982 125V95.7108H265.302V125H271.982ZM271.292 97.7437L320.4 33.7283L315.099 29.6625L265.992 93.6778L271.292 97.7437ZM317.75 28.3554H268.642V35.0354H317.75V28.3554ZM271.982 31.6954V0.82769H265.302V31.6954H271.982ZM268.642 4.16769H361.596V-2.51231H268.642V4.16769ZM358.256 0.82769V30.1169H364.936V0.82769H358.256ZM358.962 28.0624L309.153 91.9024L314.42 96.0115L364.229 32.1715L358.962 28.0624Z" fill="#DEDEDE" fill-opacity="0.19"/>
</svg>
